<svg id="Layer_1" data-name="Layer 1" xmlns="http://www.w3.org/2000/svg" viewBox="0 0 78.37 99.88"><defs><style>.cls-1{fill:#2aa473;}.cls-2{fill:#44e29e;}</style></defs><title>django_development</title><path class="cls-1" d="M35.72,1H51.79V2.15q0,36,0,72.07c0,.91-.21,1.24-1.16,1.41a98.56,98.56,0,0,1-23.43,1.83c-5.59-.33-11-1.44-15.85-4.43-5.66-3.5-8.73-8.73-9.81-15.17A31.68,31.68,0,0,1,3.24,40c3.48-8.27,9.91-12.93,18.55-14.69a31.76,31.76,0,0,1,13.37,0l.57.09Zm0,37.45A16,16,0,0,0,29,37.63a11.26,11.26,0,0,0-11,9,19.5,19.5,0,0,0-.1,9.14,10.34,10.34,0,0,0,5.78,7.59c3.88,1.81,7.92,1.37,12,.9Z" transform="translate(0)"/><path class="cls-1" d="M45.62,92.22,49.72,90c6.62-3.56,10.11-9.24,10.82-16.57.48-4.94.69-9.92.74-14.88.11-10.52,0-21,0-31.56,0-.37,0-.75,0-1.16h16c0,.33.05.62.05.9,0,13.76,0,27.52-.05,41.28A56.21,56.21,0,0,1,75.92,81.3a25.27,25.27,0,0,1-13,16.79,4.47,4.47,0,0,1-4.81.15c-3.76-2-7.67-3.71-11.51-5.54Z" transform="translate(0)"/><path class="cls-1" d="M77.31,1.1V17.5H61.38V1.1Z" transform="translate(0)"/><path d="M31.58,78.59c-1.5,0-3,0-4.42-.13-6.72-.4-11.9-1.86-16.31-4.58C5.21,70.4,1.75,65.07.58,58-.57,51.15,0,45.13,2.31,39.62c3.47-8.24,9.95-13.38,19.27-15.28a33.07,33.07,0,0,1,13.13-.13V0H52.79V12.61c0,20.19,0,41.07,0,61.61a2.11,2.11,0,0,1-2,2.39A107.48,107.48,0,0,1,31.58,78.59Zm-3-53A33.09,33.09,0,0,0,22,26.3c-8.63,1.76-14.63,6.5-17.82,14.1C2,45.55,1.47,51.21,2.55,57.69S6.78,69,11.9,72.17c4.12,2.54,9,3.9,15.38,4.28,6.83.41,14-.15,23.2-1.82a1.88,1.88,0,0,0,.31-.08,2.13,2.13,0,0,0,0-.34c0-20.54,0-41.42,0-61.61V2H36.72V26.58l-1.16-.18-.22,0-.4-.07A29.11,29.11,0,0,0,28.61,25.61Zm1.68,40a16.32,16.32,0,0,1-7-1.41A11.32,11.32,0,0,1,16.93,56a20.53,20.53,0,0,1,.1-9.61,12.24,12.24,0,0,1,11.88-9.72,17,17,0,0,1,7.14.89l.64.25V65.12l-.89.1A47.66,47.66,0,0,1,30.29,65.64Zm.18-27c-.5,0-1,0-1.46,0a10.22,10.22,0,0,0-10,8.21,18.54,18.54,0,0,0-.09,8.68,9.29,9.29,0,0,0,5.22,6.9c3.39,1.58,7,1.31,10.58.91V39.16A14,14,0,0,0,30.47,38.59Z" transform="translate(0)"/><path d="M78.31,18.5H60.38V.09H78.31Zm-15.93-2H76.31V2.1H62.38Z" transform="translate(0)"/><path d="M76.66,78.59H76.5a1,1,0,0,1-.84-1.14,59.88,59.88,0,0,0,.63-7.9,1,1,0,0,1,2,0,61.85,61.85,0,0,1-.65,8.16A1,1,0,0,1,76.66,78.59Z" transform="translate(0)"/><path d="M60.32,99.88a5.71,5.71,0,0,1-2.7-.75c-2.64-1.39-5.4-2.68-8.08-3.93l-3.4-1.6-.61-.3-2.1-1,3-1.62,2.79-1.49c6.13-3.29,9.6-8.6,10.3-15.79.44-4.52.68-9.36.74-14.79.08-7.45.06-15,0-22.37q0-4.59,0-9.18V24.84H78.26l.06.94c0,.1,0,.2,0,.3s0,.43,0,.66q0,5,0,10c0,8.77,0,17.84,0,26.76a1,1,0,0,1-1,1h0a1,1,0,0,1-1-1c0-8.92,0-18,0-26.75q0-5,0-9.93h-14V27q0,4.59,0,9.18c0,7.34,0,14.93,0,22.4-.06,5.49-.3,10.39-.75,15C60.77,81.44,57,87.28,50.19,90.91l-2.36,1.27,2.56,1.2c2.7,1.26,5.48,2.56,8.17,4a3.47,3.47,0,0,0,3.87-.14A24.11,24.11,0,0,0,74.84,81.47a1,1,0,1,1,1.94.51,26.36,26.36,0,0,1-13.4,17A6.36,6.36,0,0,1,60.32,99.88Z" transform="translate(0)"/><path class="cls-2" d="M5.33,54a1,1,0,0,1-1-.82c-1.91-10.26,6.59-19,7-19.37a1,1,0,0,1,1.43,1.41h0c-.08.08-8.13,8.38-6.41,17.59A1,1,0,0,1,5.52,54Z" transform="translate(0)"/><path class="cls-2" d="M15.23,32.54a1,1,0,0,1-.47-1.89,29.24,29.24,0,0,1,8-2.71,1,1,0,1,1,.3,2,27.66,27.66,0,0,0-7.41,2.5A1,1,0,0,1,15.23,32.54Z" transform="translate(0)"/><path class="cls-2" d="M73.71,46.41a1,1,0,0,1-1-1V30.24a1,1,0,1,1,2,0V45.41A1,1,0,0,1,73.71,46.41Z" transform="translate(0)"/><path class="cls-2" d="M73.71,52.43a1,1,0,0,1-1-1V48.89a1,1,0,1,1,2,0v2.54A1,1,0,0,1,73.71,52.43Z" transform="translate(0)"/></svg>